<?xml version="1.0" encoding="UTF-8" standalone="no"?>
<svg
   viewBox="0 0 304.5 74.5"
   width="304.5"
   height="74.5"
   version="1.1"
   id="svg2"
   xmlns:xlink="http://www.w3.org/1999/xlink"
   xmlns="http://www.w3.org/2000/svg"
   xmlns:svg="http://www.w3.org/2000/svg">
  <defs
     id="defs2">
    <linearGradient
       id="linearGradient23">
      <stop
         style="stop-color:#000000;stop-opacity:0.26382321;"
         offset="0"
         id="stop23" />
      <stop
         style="stop-color:#000000;stop-opacity:0;"
         offset="1"
         id="stop24" />
    </linearGradient>
    <linearGradient
       id="linearGradient21">
      <stop
         style="stop-color:#000000;stop-opacity:0.26382303;"
         offset="0"
         id="stop21" />
      <stop
         style="stop-color:#000000;stop-opacity:0;"
         offset="1"
         id="stop22" />
    </linearGradient>
    <linearGradient
       id="linearGradient19">
      <stop
         style="stop-color:#000000;stop-opacity:0.26382303;"
         offset="0"
         id="stop19" />
      <stop
         style="stop-color:#000000;stop-opacity:0;"
         offset="1"
         id="stop20" />
    </linearGradient>
    <linearGradient
       id="linearGradient17">
      <stop
         style="stop-color:#000000;stop-opacity:0.26382303;"
         offset="0"
         id="stop17" />
      <stop
         style="stop-color:#000000;stop-opacity:0;"
         offset="1"
         id="stop18" />
    </linearGradient>
    <linearGradient
       id="linearGradient15">
      <stop
         style="stop-color:#000000;stop-opacity:0.26382303;"
         offset="0"
         id="stop15" />
      <stop
         style="stop-color:#000000;stop-opacity:0;"
         offset="1"
         id="stop16" />
    </linearGradient>
    <linearGradient
       id="linearGradient2">
      <stop
         style="stop-color:#e75480;stop-opacity:1;"
         offset="0"
         id="stop2" />
      <stop
         style="stop-color:#b41e67;stop-opacity:1;"
         offset="1"
         id="stop3" />
    </linearGradient>
    <linearGradient
       xlink:href="#linearGradient2"
       id="linearGradient3"
       x1="73.699577"
       y1="-23.280001"
       x2="73.699577"
       y2="15.504001"
       gradientUnits="userSpaceOnUse"
       gradientTransform="translate(1.5000035,1.500029)" />
    <linearGradient
       xlink:href="#linearGradient15"
       id="linearGradient16"
       x1="301.15082"
       y1="72.415085"
       x2="279.7045"
       y2="5.2350545"
       gradientUnits="userSpaceOnUse" />
    <linearGradient
       xlink:href="#linearGradient17"
       id="linearGradient18"
       x1="248.17392"
       y1="82.92527"
       x2="208.40556"
       y2="-6.552989"
       gradientUnits="userSpaceOnUse" />
    <linearGradient
       xlink:href="#linearGradient19"
       id="linearGradient20"
       x1="184.73642"
       y1="74.067253"
       x2="148.23506"
       y2="7.73981"
       gradientUnits="userSpaceOnUse" />
    <linearGradient
       xlink:href="#linearGradient21"
       id="linearGradient22"
       x1="100.48981"
       y1="71.849861"
       x2="90.263588"
       y2="14.89606"
       gradientUnits="userSpaceOnUse" />
    <linearGradient
       xlink:href="#linearGradient23"
       id="linearGradient24"
       x1="46.776493"
       y1="72.533966"
       x2="26.04076"
       y2="17.710598"
       gradientUnits="userSpaceOnUse" />
  </defs>
  <style
     id="style1">
	@font-face {
        font-family: 'TankTrouble';
        src:  url('ttcv2/fonts/TankTrouble_font.ttf') format('truetype');
    }
	</style>
  <path
     d="M 33.737057,5.019831 Q 39.166798,4.846564 44.2624,4.846564 q 5.179135,0 9.355857,0 4.761463,0 9.18879,0.08663 0,1.1262379 0.08354,2.339109 0,1.039604 0,2.425743 0.08353,1.386137 0,2.858911 -0.167069,1.472772 -0.334139,2.945544 -0.08353,1.386139 -0.250603,2.512377 -0.16707,1.386138 -0.334137,2.512376 -1.002415,0.173267 -2.004828,0.433168 -0.918878,0.173267 -2.088361,0.346535 -1.169482,0.173267 -2.589568,0.346534 -1.420083,0.173268 -2.923705,0.259901 -1.503619,0.08662 -2.673102,0.173268 -1.420086,0.08662 -2.756637,0.08662 -0.08353,3.29208 -0.250604,6.84406 -0.167068,3.032177 -0.334136,7.017327 -0.16707,3.898515 -0.334138,7.970297 -0.250603,5.024752 -0.584742,9.962871 -0.250603,4.938119 -0.501206,9.009901 -0.334139,4.764851 -0.501207,9.096535 -1.587154,0.346535 -3.341379,0.693069 -1.50362,0.346535 -3.508447,0.606435 -1.921291,0.346534 -3.842586,0.519803 -2.004824,0.259901 -3.926118,0.346534 -1.921291,0.08664 -3.341377,0.173267 -1.670689,0.08662 -3.174309,0 -0.167069,-3.465346 -0.334138,-7.537128 -0.167068,-3.378713 -0.334139,-7.710396 -0.08353,-4.418317 -0.167067,-9.009901 -0.16707,-4.678218 -0.250604,-9.269802 0,-4.678218 0,-8.403465 v -8.316832 q -1.587153,0.173266 -3.090774,0.259901 -1.336551,0.173267 -3.007239,0.2599 -1.587157,0 -3.090775,0.08663 -1.754223,0.08664 -3.2578428,0.08664 -1.4200859,0 -2.5895688,0 H 4.7506105 q -0.083538,-0.952956 -0.167073,-2.165828 -0.083534,-0.95297 -0.083534,-2.339109 0,-1.386138 0.167069,-2.85891 0.1670689,-1.819307 0.417672,-3.725247 Q 5.4188825,11.86389 5.6694856,10.304484 6.0036235,8.485178 6.3377613,6.752504 10.347415,6.40597 14.858275,6.059435 18.700859,5.799534 23.545856,5.539633 28.474389,5.193098 33.737057,5.019831 Z m 63.235581,0 q 5.429732,-0.173267 10.525332,-0.173267 5.17913,0 9.35586,0 4.76147,0 9.1888,0.08663 0,1.1262379 0.0835,2.339109 0,1.039604 0,2.425743 0.0835,1.386137 0,2.858911 -0.16707,1.472772 -0.33415,2.945544 -0.0835,1.386139 -0.2506,2.512377 -0.16706,1.386138 -0.33413,2.512376 -1.00242,0.173267 -2.00482,0.433168 -0.91888,0.173267 -2.08838,0.346535 -1.16947,0.173267 -2.58955,0.346534 -1.42008,0.173268 -2.92372,0.259901 -1.50362,0.08662 -2.67309,0.173268 -1.42009,0.08662 -2.75664,0.08662 -0.0836,3.29208 -0.2506,6.84406 -0.16706,3.032177 -0.33414,7.017327 -0.16708,3.898515 -0.33415,7.970297 -0.25059,5.024752 -0.58473,9.962871 -0.2506,4.938119 -0.50122,9.009901 -0.33412,4.764851 -0.5012,9.096535 -1.58715,0.346535 -3.34138,0.693069 -1.50362,0.346535 -3.50844,0.606435 -1.921294,0.346534 -3.842583,0.519803 -2.004831,0.259901 -3.926121,0.346534 -1.921289,0.08664 -3.341379,0.173267 -1.67069,0.08662 -3.17431,0 -0.167069,-3.465346 -0.33414,-7.537128 -0.167069,-3.378713 -0.334129,-7.710396 -0.08349,-4.418317 -0.167071,-9.009901 -0.167068,-4.678218 -0.250609,-9.269802 0,-4.678218 0,-8.403465 v -8.316832 q -1.587152,0.173266 -3.090772,0.259901 -1.336552,0.173267 -3.00724,0.2599 -1.587155,0 -3.090776,0.08663 -1.754221,0.08664 -3.257842,0.08664 -1.420086,0 -2.589568,0 h -2.422509 q -0.08353,-0.95297 -0.16707,-2.165843 -0.08352,-0.952969 -0.08352,-2.339108 0,-1.386138 0.167069,-2.85891 0.167069,-1.819308 0.417672,-3.725248 0.334139,-1.905942 0.584741,-3.465347 0.334138,-1.8193062 0.668276,-3.5519803 4.009647,-0.346534 8.520506,-0.693069 Q 81.936402,5.799521 86.781392,5.53962 91.709929,5.193085 96.9726,5.019818 Z m 66.994622,17.066832 q -2.00482,0.346534 -3.34138,0.779703 -1.253,0.346534 -1.92128,0.693069 -0.91888,0.346535 -1.25302,0.779703 -0.75181,3.292079 -1.25301,6.584158 -0.50121,2.772278 -0.91889,6.064357 -0.33413,3.205446 -0.5012,5.891089 -0.16708,3.032179 0,5.284654 0.16707,2.165841 0.41766,3.638614 0.33414,1.732673 0.75181,2.945544 0.41768,0.346535 1.33656,0.69307 0.7518,0.346534 2.00482,0.693069 1.33655,0.346535 3.34138,0.606436 2.92371,0.433167 6.43216,0.779702 3.50844,0.259902 6.68274,0.433169 3.67552,0.259901 7.35103,0.433168 0,1.299505 -0.0835,2.59901 -0.0835,1.126238 -0.25061,2.512376 -0.0835,1.386139 -0.2506,2.685644 -0.33415,1.732673 -0.66829,3.205445 -0.25059,1.386139 -0.58474,2.59901 -0.33414,1.386139 -0.7518,2.512376 -5.0956,-0.08662 -10.1912,-0.433168 -4.34379,-0.173267 -9.35585,-0.606435 -5.01208,-0.346535 -9.27232,-0.952971 -4.51086,-0.606435 -7.76872,-1.386138 -3.17432,-0.779703 -5.3462,-1.472773 -2.58956,-0.866336 -4.34378,-1.646039 -0.83535,-3.985149 -1.50362,-8.663367 -0.58476,-3.985148 -1.00242,-9.096534 -0.33415,-5.111386 0,-10.742575 0.25059,-5.024752 1.08595,-10.049505 0.91887,-5.024752 1.83776,-9.183168 1.08594,-4.764852 2.4225,-9.183169 1.83775,-0.95297 4.26024,-1.90594 2.08838,-0.779703 5.09562,-1.559406 3.00723,-0.866337 6.93334,-1.472772 4.51088,-0.69307 9.4394,-0.952971 5.01207,-0.346534 9.27232,-0.519802 4.92855,-0.173267 9.69001,-0.173267 v 7.017327 8.836633 q -3.25785,0.259901 -6.43217,0.519802 -2.67308,0.2599 -5.76386,0.519802 -3.09076,0.259901 -5.59681,0.69307 z m 59.14237,11.608911 q 1.16949,-3.465348 2.58956,-8.316832 1.50362,-4.938119 2.84018,-9.529703 1.50362,-5.371287 3.09077,-10.915842 1.83776,-0.08663 3.75905,-0.08663 1.6707,0 3.59198,0 2.00484,0 3.75905,0.173267 3.34139,0.346535 5.51328,1.2128711 1.16948,0.433169 2.08836,0.952971 -1.16949,3.9851479 -2.4225,8.1435639 -1.08596,3.55198 -2.33897,7.623762 -1.25301,3.985149 -2.42249,7.450496 -2.4225,7.277227 -5.09561,14.727723 -2.58957,7.363861 -4.76146,13.601485 -2.58957,7.277227 -5.01208,14.034653 -2.17189,0.259901 -4.51085,0.519802 -2.00484,0.173268 -4.42732,0.346535 -2.4225,0.259901 -4.76147,0.433168 -1.92129,0.173267 -3.50845,0.08662 -1.58714,0 -2.84016,-0.08662 -1.50363,-0.08662 -2.67312,-0.173267 -1.33653,-4.418317 -2.67308,-9.443069 -1.16948,-4.331684 -2.58957,-9.789604 -1.33656,-5.457921 -2.75664,-11.435644 -1.50363,-6.410891 -2.84017,-12.821782 -1.25303,-6.410892 -2.25544,-11.608911 -1.16948,-6.064357 -2.08836,-11.6955449 1.83777,-0.346535 3.84259,-0.693069 1.67067,-0.346535 3.75906,-0.606436 2.17189,-0.346535 4.34379,-0.6064361 1.5036,-0.173267 2.84016,-0.2599009 1.42008,-0.08663 2.50604,-0.173267 h 2.42249 q 1.00241,5.5445539 2.00483,10.9158419 0.91888,4.591584 1.92129,9.616337 1.00242,5.024752 2.00483,8.836633 0.75181,2.945545 1.33655,4.591584 0.66827,1.559406 1.08595,2.339109 0.5012,0.952971 0.91888,1.039604 0.25061,0.08664 0.75182,-0.779703 0.41766,-0.693069 1.08594,-2.425742 0.7518,-1.819307 1.92129,-5.19802 z M 298.79179,5.019831 q 1.08595,2.079208 2.00482,4.331683 0.83535,1.992574 1.67069,4.504951 0.83535,2.425742 1.33655,4.938119 0.50121,3.032177 0.58474,5.891089 0.16707,2.858911 0.0836,5.111386 -0.0836,2.685644 -0.33414,5.024753 -4.17672,3.292079 -7.85224,6.15099 -3.17431,2.512376 -6.26507,4.938119 -3.00726,2.425742 -4.42734,3.638613 -2.92371,2.339109 -4.3438,3.725248 -1.33655,1.299505 -2.00481,1.992574 -0.75181,0.866337 -0.66827,1.039604 -0.16708,0.346535 0.50119,0.69307 0.58475,0.346534 1.92131,0.693069 1.42007,0.346534 4.17671,0.606435 1.83775,0.173268 4.92853,0.346535 3.17431,0.173267 6.26509,0.259901 3.59198,0.173267 7.60162,0.173267 v 2.079208 q 0,0.952971 -0.0835,2.165842 -0.0835,1.212871 -0.2506,2.425742 -0.16707,1.386139 -0.41769,2.685644 -0.16706,1.212871 -0.41767,2.165842 -0.33414,1.126237 -0.58474,2.165841 -4.17672,0.346535 -8.68758,0.606436 -3.84259,0.173267 -8.43697,0.346534 -4.59442,0.173268 -9.02173,0.173268 -4.00966,0 -7.43457,-0.173268 -3.34137,-0.173267 -5.84741,-0.433168 -2.92371,-0.259901 -5.42974,-0.606435 -0.2506,-1.819307 -0.41767,-3.811882 -0.16708,-1.732673 -0.2506,-3.811881 -0.0835,-2.165841 -0.0835,-4.418317 0,-1.732673 0.0835,-3.378712 0.0835,-1.732674 0.2506,-3.032179 0.16707,-1.559406 0.41767,-2.945544 1.6707,-1.559406 3.75905,-3.29208 1.75422,-1.472772 4.00965,-3.378712 2.33898,-1.992575 4.84501,-4.158416 2.67309,-2.252476 5.17913,-4.418317 2.58957,-2.165842 4.76145,-3.985149 2.42251,-2.079208 4.76148,-4.071782 0.25061,-0.606436 0.41768,-1.386139 0.33412,-1.386138 0.16706,-2.772277 -0.0835,-0.693069 -0.33413,-1.299505 -0.16708,-0.606436 -0.41767,-1.039605 -0.33415,-0.519801 -0.66829,-0.952969 h -2.50602 q -1.25303,0 -3.09079,0 -1.75422,0 -4.00965,0.173267 -2.6731,0.173267 -5.59681,0.433167 -2.92371,0.173269 -5.3462,0.346535 -2.84017,0.259902 -5.68035,0.519803 -0.0835,-0.95297 0,-1.992574 0,-0.95297 0.0835,-2.165842 0.16707,-1.212871 0.33414,-2.685643 0.41768,-2.685644 0.91887,-5.024753 0.33414,-1.299505 0.58474,-2.512376 2.1719,-0.519802 4.76146,-0.95297 2.17189,-0.433169 5.09561,-0.779703 2.92371,-0.433169 6.26508,-0.69307 4.00966,-0.259901 8.10285,-0.259901 4.09319,-0.08663 7.43456,-0.08663 3.92612,0.08663 7.60164,0.173267 z"
     id="path24"
     style="display:inline;fill:#000000;fill-opacity:1;stroke-width:1.77229"
     aria-label="TTCV2" />
  <path
     d="m 30.737104,2.01983 q 5.429739,-0.173267 10.525299,-0.173267 5.179141,0 9.35586,0 4.76146,0 9.18879,0.086634 0,1.12624 0.08353,2.33911 0,1.0396 0,2.42574 0.08354,1.38614 0,2.8589103 -0.167069,1.4727697 -0.334138,2.9455397 -0.08353,1.38614 -0.250603,2.51238 -0.167069,1.38614 -0.334138,2.51238 -1.00241,0.173267 -2.00483,0.433168 -0.918879,0.173267 -2.08836,0.346535 -1.16948,0.173267 -2.58957,0.346535 -1.42009,0.173267 -2.92371,0.259901 -1.50362,0.08663 -2.6731,0.173267 -1.42009,0.08663 -2.75664,0.08663 -0.08353,3.29208 -0.250603,6.84406 -0.167069,3.03218 -0.334138,7.01733 -0.167069,3.89851 -0.334138,7.9703 -0.250603,5.02475 -0.584741,9.96287 -0.250603,4.93812 -0.501207,9.0099 -0.334164,4.764876 -0.501164,9.096576 -1.58715,0.346535 -3.34138,0.693069 -1.50362,0.346535 -3.50845,0.606436 -1.92129,0.346535 -3.84258,0.519802 -2.00483,0.259901 -3.92612,0.346535 -1.92129,0.08663 -3.34138,0.173267 -1.67069,0.08663 -3.17431,0 -0.16708,-3.465409 -0.33418,-7.537209 -0.167099,-3.3787 -0.3341,-7.7104 -0.08353,-4.41832 -0.167069,-9.0099 -0.167069,-4.67822 -0.250603,-9.2698 0,-4.67822 0,-8.40347 l -2.8e-5,-8.31683 q -1.58715,0.173267 -3.09077,0.259901 -1.336549,0.173267 -3.007239,0.259901 -1.58715,0 -3.09077,0.08663 -1.7542305,0.08666 -3.2578505,0.08666 -1.42009,0 -2.58957,0 h -2.4225 Q 1.667069,20.905959 1.5835345,19.693089 1.5,18.740119 1.5,17.353979 q 0,-1.38614 0.167069,-2.85891 0.167069,-1.81931 0.417672,-3.72525 0.334138,-1.90594 0.584741,-3.46535 0.334138,-1.81931 0.668276,-3.55198 4.00965,-0.346535 8.52051,-0.693069 3.84258,-0.259901 8.687579,-0.519802 4.928531,-0.346535 10.191201,-0.519802 z m 63.2356,0 q 5.42974,-0.173267 10.525296,-0.173267 5.17914,0 9.35586,0 4.76146,0 9.18879,0.086634 0,1.12624 0.0835,2.33911 0,1.0396 0,2.42574 0.0835,1.38614 0,2.8589103 -0.16706,1.4727697 -0.33413,2.9455397 -0.0835,1.38614 -0.25061,2.51238 -0.16707,1.38614 -0.33413,2.51238 -1.00241,0.173267 -2.00483,0.433168 -0.91888,0.173267 -2.08836,0.346535 -1.16948,0.173267 -2.58957,0.346535 -1.42009,0.173267 -2.92371,0.259901 -1.50362,0.08663 -2.6731,0.173267 -1.42009,0.08663 -2.75664,0.08663 -0.0835,3.29208 -0.25061,6.84406 -0.16707,3.03218 -0.33414,7.01733 -0.16706,3.89851 -0.33413,7.9703 -0.25061,5.02475 -0.58474,9.96287 -0.25061,4.93812 -0.50121,9.0099 -0.33414,4.76485 -0.50121,9.09653 -1.58715,0.346535 -3.34137,0.693069 -1.503624,0.346535 -3.508454,0.606436 -1.92129,0.346535 -3.84258,0.519802 -2.00483,0.259901 -3.92612,0.346535 -1.92129,0.08663 -3.34138,0.173267 -1.67069,0.08663 -3.17431,0 -0.167069,-3.46535 -0.334138,-7.53713 -0.167069,-3.37871 -0.334138,-7.7104 -0.08353,-4.41832 -0.167069,-9.0099 -0.167069,-4.67822 -0.250603,-9.2698 0,-4.67822 0,-8.40347 l 6e-6,-8.316866 q -1.58715,0.173267 -3.09077,0.259901 -1.33655,0.173267 -3.00724,0.259901 -1.58715,0 -3.09077,0.08663 -1.75422,0.08663 -3.25784,0.08663 -1.42009,0 -2.58957,0 l -2.42251,3.1e-5 q -0.08353,-0.95297 -0.167069,-2.16584 -0.08353,-0.95297 -0.08353,-2.33911 0,-1.38614 0.167069,-2.85891 0.167069,-1.81931 0.417673,-3.72525 0.334137,-1.90594 0.584741,-3.46535 0.334137,-1.81931 0.668276,-3.55198 4.009648,-0.346535 8.52051,-0.693069 3.84258,-0.259901 8.68758,-0.519802 4.92853,-0.346535 10.191198,-0.519802 z M 160.967,19.086629 q -2.00483,0.346535 -3.34138,0.779703 -1.25302,0.346535 -1.92129,0.693069 -0.91888,0.346535 -1.25302,0.779703 -0.75181,3.29208 -1.25302,6.58416 -0.50121,2.77228 -0.91888,6.06436 -0.33414,3.20545 -0.50121,5.89109 -0.16706,3.03218 0,5.28465 0.16707,2.16584 0.41768,3.63861 0.33413,1.73267 0.75181,2.94554 0.41767,0.346535 1.33655,0.693069 0.75181,0.346535 2.00483,0.693069 1.33655,0.346535 3.34138,0.606436 2.92371,0.433168 6.43215,0.779703 3.50845,0.259901 6.68276,0.433168 3.67552,0.259901 7.35103,0.433168 0,1.2995 -0.0835,2.59901 -0.0835,1.12624 -0.2506,2.51238 -0.0832,1.386212 -0.25025,2.685712 -0.33414,1.73267 -0.66828,3.20545 -0.2506,1.38614 -0.58474,2.59901 -0.33414,1.38614 -0.75181,2.51238 -5.09621,-0.08664 -10.19121,-0.43324 -4.344,-0.1732 -9.356,-0.6064 -5.012,-0.3465 -9.272,-0.953 -4.511,-0.6064 -7.769,-1.3861 -3.174,-0.7797 -5.346,-1.4728 -2.58957,-0.866337 -4.34379,-1.64604 -0.83535,-3.98515 -1.50362,-8.66337 -0.58474,-3.98515 -1.00241,-9.09653 -0.33414,-5.11139 0,-10.7426 0.2506,-5.02475 1.08595,-10.0495 0.91887,-5.02476 1.83787,-9.18316 1.08595,-4.76485 2.4225,-9.18317 1.83776,-0.95297 4.26026,-1.90594 2.08836,-0.779703 5.0956,-1.55941 3.00724,-0.866337 6.93336,-1.47277 4.51086,-0.693069 9.43939,-0.95297 5.01207,-0.346535 9.27232,-0.519802 Q 173.99896,1.5 178.76043,1.5 L 178.76,8.517359 v 8.83667 q -3.25784,0.259901 -6.43215,0.519802 -2.6731,0.259901 -5.76388,0.519802 -3.09077,0.259901 -5.59681,0.693069 z m 59.1424,11.6089 q 1.16948,-3.46535 2.58957,-8.31683 1.50362,-4.93812 2.84017,-9.5297 1.50362,-5.37129 3.09077,-10.9158 1.83776,-0.086634 3.75905,-0.086634 1.67069,0 3.59198,0 2.00483,0 3.75905,0.173267 3.34138,0.346535 5.51327,1.21287 1.16948,0.433168 2.08836,0.95297 -1.16948,3.98515 -2.4225,8.14356 -1.08595,3.55198 -2.33896,7.62376 -1.25302,3.98515 -2.4225,7.4505 -2.4225,7.27723 -5.0956,14.7277 -2.58957,7.36386 -4.76146,13.6015 -2.58957,7.27723 -5.01207,14.0347 -2.1719,0.259901 -4.51086,0.519802 -2.00483,0.173267 -4.42733,0.346535 -2.4225,0.259901 -4.76146,0.433168 -1.92129,0.173267 -3.50845,0.08663 -1.58715,0 -2.84017,-0.08663 -1.50362,-0.08663 -2.6731,-0.173267 -1.33655,-4.41832 -2.6731,-9.44307 -1.16948,-4.33168 -2.58957,-9.7896 -1.33655,-5.45792 -2.75664,-11.4356 -1.50362,-6.41089 -2.84017,-12.8218 -1.25302,-6.41089 -2.25543,-11.6089 -1.16948,-6.0643603 -2.08836,-11.6955 1.83776,-0.346535 3.84258,-0.693069 1.67069,-0.346535 3.75905,-0.606436 2.1719,-0.346535 4.34379,-0.606436 1.50362,-0.173267 2.84017,-0.259901 1.42009,-0.086634 2.50603,-0.173267 l 2.42249,-1.22e-4 q 1.00241,5.54455 2.00483,10.9158 0.91888,4.59158 1.92129,9.61634 1.00241,5.02475 2.00483,8.83663 0.75181,2.94554 1.33655,4.59158 0.66828,1.55941 1.08595,2.33911 0.50121,0.95297 0.91888,1.0396 0.2506,0.08663 0.75181,-0.779703 0.41767,-0.693069 1.08595,-2.42574 0.75181,-1.81931 1.92129,-5.19802 z M 295.792,2.01983 q 1.08595,2.07921 2.00483,4.33168 0.83535,1.99257 1.67069,4.50495 0.83534,2.42574 1.33655,4.93812 0.50121,3.03218 0.58474,5.89109 0.16707,2.85891 0.0835,5.11139 -0.0835,2.68564 -0.33414,5.02475 -4.17672,3.29208 -7.85224,6.15099 -3.17431,2.51238 -6.26508,4.93812 -3.00724,2.42574 -4.42733,3.63861 -2.92371,2.33911 -4.34379,3.72525 -1.33655,1.2995 -2.00483,1.99257 -0.75181,0.866337 -0.66828,1.0396 -0.16707,0.346535 0.50121,0.693069 0.58474,0.346535 1.92129,0.693069 1.42009,0.346535 4.17672,0.606436 1.83776,0.173267 4.92853,0.346535 3.17431,0.173267 6.26508,0.259901 3.59198,0.173267 7.60164,0.173267 l -9e-5,2.079202 q 0,0.95297 -0.0835,2.16584 -0.0835,1.21287 -0.25061,2.42574 -0.16707,1.38614 -0.41767,2.68564 -0.16707,1.21287 -0.41767,2.16584 -0.33414,1.12624 -0.58474,2.16584 -4.17672,0.346535 -8.68758,0.606436 -3.84258,0.173267 -8.43698,0.346535 -4.59439,0.173267 -9.02172,0.173267 -4.00965,0 -7.43457,-0.173267 -3.34138,-0.173267 -5.84741,-0.433168 -2.92371,-0.259901 -5.42974,-0.606436 -0.25061,-1.81931 -0.41767,-3.81188 -0.16707,-1.73267 -0.25061,-3.81188 -0.0835,-2.16584 -0.0835,-4.41832 0,-1.73267 0.0835,-3.37871 0.0835,-1.73267 0.25061,-3.03218 0.16706,-1.55941 0.41767,-2.94554 1.67069,-1.55941 3.75905,-3.29208 1.75422,-1.47277 4.00965,-3.37871 2.33896,-1.99257 4.845,-4.15842 2.6731,-2.25248 5.17914,-4.41832 2.58957,-2.16584 4.76146,-3.98515 2.4225,-2.07921 4.76146,-4.07178 0.2506,-0.606436 0.41767,-1.38614 0.33414,-1.38614 0.16707,-2.77228 -0.0835,-0.693069 -0.33414,-1.2995 -0.16707,-0.606436 -0.41767,-1.0396 -0.33414,-0.519802 -0.66828,-0.95297 l -2.50619,-7e-6 q -1.25302,0 -3.09077,0 -1.75422,0 -4.00965,0.173267 -2.6731,0.173267 -5.59681,0.433168 -2.92371,0.173267 -5.3462,0.346535 -2.84017,0.259901 -5.68034,0.519802 -0.0835,-0.95297 0,-1.99257 0,-0.95297 0.0835,-2.16584 0.16707,-1.21287 0.33414,-2.68564 0.41767,-2.68564 0.91888,-5.02475 0.33414,-1.2995 0.58474,-2.51238 2.1719,-0.519802 4.76146,-0.95297 2.1719,-0.433168 5.0956,-0.779703 2.92371,-0.433168 6.26508,-0.693069 4.00965,-0.259901 8.10284,-0.259901 4.09319,-0.086634 7.43457,-0.086634 3.92612,0.086634 7.60164,0.173267 z"
     id="text1"
     style="display:inline;fill:url(#linearGradient3);stroke:#000000;stroke-width:3;stroke-linecap:round;stroke-linejoin:round;stroke-dasharray:none;stroke-opacity:1;paint-order:markers stroke fill"
     aria-label="TTCV2" />
  <g
     id="layer1"
     style="display:inline"
     transform="translate(1.5000035,1.500029)">
    <path
       id="path10"
       style="fill:url(#linearGradient24);fill-opacity:1;stroke-width:15;stroke-linecap:round"
       d="m 42.248047,19.853516 c -0.73054,0.05397 -0.845725,0.742401 -1.431641,1.767578 -0.85224,1.491167 -2.431365,28.290739 -2.933594,30.349609 -0.502227,2.05887 -2.310339,3.364446 -4.017578,3.464844 -1.707238,0.100397 -9.389355,0.602421 -11.699218,-1.40625 -1.554674,-1.351954 -3.011597,-3.645477 -4.169922,-6.357422 0.04323,2.35619 0.08763,4.70756 0.130859,6.994141 0.111379,2.887786 0.222605,5.458464 0.333985,7.710937 0.111379,2.714519 0.222605,5.226881 0.333984,7.537109 1.002412,0.05776 2.060036,0.05776 3.173828,0 0.946723,-0.05776 2.060937,-0.116072 3.341797,-0.173828 1.28086,-0.05776 2.589231,-0.172436 3.925781,-0.345703 1.28086,-0.115511 2.56289,-0.290461 3.84375,-0.521484 1.33655,-0.173267 2.5054,-0.374446 3.507813,-0.605469 1.169481,-0.231023 2.283694,-0.462336 3.341797,-0.693359 0.111379,-2.887786 0.279194,-5.919139 0.501953,-9.095703 0.167068,-2.714519 0.332931,-5.71769 0.5,-9.009766 0.222758,-3.292076 0.418868,-6.613059 0.585937,-9.962891 0.111379,-2.714518 0.222605,-5.371695 0.333984,-7.970703 0.11138,-2.656763 0.222606,-4.996128 0.333985,-7.017578 0.0759,-1.613792 0.119881,-3.130744 0.169922,-4.664062 -0.03585,-2.02e-4 -0.07422,-0.0025 -0.107422,0 z" />
    <path
       id="path11"
       style="fill:url(#linearGradient22);fill-opacity:1;stroke-width:15;stroke-linecap:round"
       d="m 105.62109,19.027344 c -0.35493,0.271095 -0.53132,0.844503 -0.96289,1.599609 -0.85224,1.491168 -3.33518,27.085728 -3.83741,29.144597 -0.50222,2.05887 -4.068018,8.034137 -5.775257,8.134535 -1.707238,0.100397 -7.330483,-1.104579 -9.640347,-3.11325 -1.868444,-1.624811 -2.993994,-6.362656 -4.227452,-9.804554 0.0077,0.22444 0.0096,0.443229 0.01758,0.667969 0.05569,3.061053 0.11228,6.064224 0.167969,9.009766 0.111379,2.887786 0.222605,5.458464 0.333985,7.710937 0.111379,2.714519 0.222605,5.226881 0.333984,7.537109 1.002412,0.05776 2.060037,0.05776 3.173828,0 0.946723,-0.05776 2.060937,-0.116072 3.341797,-0.173828 1.28086,-0.05776 2.589231,-0.172436 3.925781,-0.345703 1.280861,-0.115511 2.560937,-0.290461 3.841797,-0.521484 1.33655,-0.173267 2.507353,-0.374446 3.509766,-0.605469 1.169479,-0.231023 2.283689,-0.462336 3.341799,-0.693359 0.11137,-2.887786 0.27724,-5.919139 0.5,-9.095703 0.16706,-2.714519 0.33488,-5.71769 0.50195,-9.009766 0.22276,-3.292076 0.41691,-6.613059 0.58398,-9.962891 0.11138,-2.714518 0.22261,-5.371695 0.33399,-7.970703 0.11138,-2.656763 0.2226,-4.996128 0.33398,-7.017578 0.0893,-1.899647 0.14766,-3.702095 0.20117,-5.490234 z" />
    <path
       id="path12"
       style="fill:url(#linearGradient20);fill-opacity:1;stroke-width:15;stroke-linecap:round"
       d="m 150.9375,31.447266 c -1.02295,3.667251 -2.75411,11.186991 -2.33203,14.179687 0.50959,3.613238 -17.53129,3.614494 -21.4375,-1.609375 0.0246,0.570118 0.018,1.163875 0.0547,1.72461 0.27844,3.407587 0.61212,6.440893 1.00195,9.097656 0.44552,3.118809 0.94701,6.005346 1.50391,8.662109 1.16948,0.519802 2.61737,1.068927 4.34375,1.646485 1.44792,0.462045 3.23145,0.952854 5.34765,1.472656 2.1719,0.519801 4.76034,0.982428 7.76758,1.386718 2.84017,0.404291 5.93206,0.722103 9.27344,0.953126 3.34137,0.288778 6.45961,0.489957 9.35547,0.605468 3.39706,0.231023 6.79434,0.375838 10.1914,0.433594 0.27845,-0.750824 0.5292,-1.587627 0.75196,-2.511719 0.22275,-0.80858 0.41691,-1.675518 0.58398,-2.599609 0.22276,-0.981847 0.44521,-2.049964 0.66797,-3.205078 0.11138,-0.866336 0.19431,-1.761456 0.25,-2.685547 0.11138,-0.924092 0.19626,-1.762848 0.25195,-2.513672 0.0557,-0.866336 0.082,-1.73132 0.082,-2.597656 -2.45034,-0.115512 -4.89926,-0.260327 -7.34961,-0.433594 -2.1162,-0.115511 -4.34463,-0.260327 -6.68359,-0.433594 -2.33896,-0.231023 -4.48251,-0.490518 -6.43164,-0.779297 -1.33655,-0.173267 -2.45076,-0.376399 -3.3418,-0.607422 -0.83534,-0.231022 -1.5027,-0.460383 -2.0039,-0.691406 -0.61259,-0.231023 -1.05945,-0.462336 -1.33789,-0.693359 -0.27845,-0.80858 -0.5292,-1.790198 -0.75196,-2.945313 -0.16707,-0.981847 -0.30463,-2.194779 -0.41601,-3.638672 -0.11138,-1.501648 -0.11138,-3.263706 0,-5.285156 0.11138,-1.790427 0.27724,-3.753663 0.5,-5.890625 0.0478,-0.376757 0.10876,-0.67447 0.1582,-1.041015 z" />
    <path
       id="path13"
       style="fill:url(#linearGradient18);fill-opacity:1;stroke-width:15;stroke-linecap:round"
       d="m 243.97852,1.8359375 c -0.02,0.080925 -0.0429,0.1388021 -0.0625,0.2226563 -2.13043,9.0896642 -21.4465,55.9589862 -23.29297,57.5214842 -1.84646,1.562499 -14.2016,2.129668 -17.89453,0.283203 -2.46087,-1.230435 -4.787,-5.105186 -6.70118,-8.859375 0.852,3.265979 1.65471,6.308299 2.36719,8.947266 0.89103,3.349831 1.7828,6.497818 2.67383,9.443359 0.77965,0.05776 1.66946,0.11412 2.67187,0.171875 0.83535,0.05776 1.78175,0.08789 2.83985,0.08789 1.0581,0.05776 2.2289,0.02762 3.50976,-0.08789 1.55931,-0.115511 3.14672,-0.260326 4.76172,-0.433594 1.615,-0.115511 3.08923,-0.230191 4.42578,-0.345703 1.55931,-0.173267 3.06379,-0.346264 4.51172,-0.519531 1.615,-4.504946 3.28534,-9.183676 5.01172,-14.035156 1.44793,-4.158412 3.03534,-8.692327 4.76172,-13.601563 1.78207,-4.966991 3.48071,-9.875082 5.0957,-14.726562 0.77966,-2.310229 1.58653,-4.794409 2.42188,-7.451172 0.83534,-2.714519 1.61588,-5.255062 2.33984,-7.623047 0.83535,-2.7722744 1.64222,-5.4877681 2.42188,-8.1445311 -0.54658,-0.3091936 -1.1837,-0.5863952 -1.86328,-0.8496094 z" />
    <path
       id="path14"
       style="fill:url(#linearGradient16);fill-opacity:1;stroke-width:15;stroke-linecap:round"
       d="m 296.21289,4.6679688 c 0.92762,6.1998952 1.72641,16.5601282 -1.79492,21.7539062 -4.01735,5.925376 -24.80564,24.605434 -26.61328,25.107422 -1.6084,0.446658 -12.02452,1.838955 -15.50781,-0.05078 -0.0335,0.436646 -0.0819,0.793012 -0.10547,1.28125 -0.0557,1.097358 -0.084,2.223792 -0.084,3.378906 0,1.501649 0.0283,2.974076 0.084,4.417969 0.0557,1.386137 0.13862,2.657385 0.25,3.8125 0.11138,1.328381 0.2509,2.59963 0.41797,3.8125 1.67068,0.231022 3.48055,0.432201 5.42968,0.605468 1.67069,0.173268 3.62008,0.318083 5.84766,0.433594 2.28327,0.115512 4.76049,0.173828 7.43359,0.173828 2.95155,0 5.95856,-0.05832 9.02149,-0.173828 3.06292,-0.115511 5.87578,-0.232145 8.4375,-0.347656 3.00723,-0.173267 5.90302,-0.374446 8.6875,-0.605469 0.16707,-0.693068 0.36122,-1.415191 0.58398,-2.166016 0.16707,-0.635312 0.30659,-1.357435 0.41797,-2.166015 0.16707,-0.866336 0.30659,-1.761456 0.41797,-2.685547 0.11138,-0.80858 0.19431,-1.617201 0.25,-2.425781 0.0557,-0.80858 0.084,-1.530703 0.084,-2.166016 v -2.078125 c -2.6731,0 -5.20691,-0.05832 -7.60156,-0.173828 -2.06051,-0.05776 -4.14942,-0.144254 -6.26562,-0.259766 -2.06052,-0.115511 -3.70257,-0.232144 -4.92774,-0.347656 -1.83775,-0.173267 -3.23101,-0.374446 -4.17773,-0.605469 -0.89104,-0.231022 -1.5301,-0.462336 -1.91993,-0.693359 -0.44551,-0.231023 -0.61333,-0.462337 -0.50195,-0.693359 -0.0557,-0.115512 0.16676,-0.461506 0.66797,-1.039063 0.44552,-0.462046 1.11483,-1.125852 2.00586,-1.992187 0.94672,-0.924092 2.39461,-2.167158 4.34375,-3.726563 0.94672,-0.80858 2.42291,-2.021512 4.42773,-3.638672 2.06052,-1.61716 4.14747,-3.262584 6.26368,-4.9375 2.45034,-1.905938 5.06903,-3.955673 7.85351,-6.15039 0.16707,-1.559405 0.2783,-3.234964 0.33399,-5.025391 0.0557,-1.501649 0.0274,-3.205389 -0.084,-5.111328 -0.0557,-1.905939 -0.24985,-3.869175 -0.58398,-5.890625 -0.33414,-1.674916 -0.781,-3.322293 -1.33789,-4.9394532 -0.5569,-1.6749159 -1.11303,-3.1755248 -1.66992,-4.5039063 -0.0259,-0.063505 -0.0579,-0.1202952 -0.084,-0.1835947 z" />
  </g>
  <g
     id="layer2"
     transform="translate(1.5000035,1.500029)">
    <path
       id="path1"
       d="" />
    <path
       style="fill:#ffffff;fill-opacity:1;stroke-width:15;stroke-linecap:round"
       d="m 52.266336,1.2134183 c 1.456246,-0.1505965 4.569533,0.4018307 4.569533,0.4018307 0,0 -49.1565212,2.2689222 -51.5709233,3.0501722 C 2.8505435,5.4466712 1.2883832,15.601563 1.359375,17.590014 1.4303668,19.578465 1.217731,5.8722826 2.140625,4.2391304 3.063519,2.6059783 48.989193,1.3123665 52.266336,1.2134183 Z"
       id="path3" />
    <path
       style="fill:#ffffff;fill-opacity:1;stroke-width:15;stroke-linecap:round"
       d="M 65.713655,9.1131114 C 65.997792,6.414572 65.678159,4.4262908 68.128227,4.2131454 70.578295,4 117.97469,1.7211277 119.21739,1.6856318 c 1.2427,-0.035496 -52.718008,0.7995699 -53.596848,2.0047018 -0.878839,1.2051319 -0.251234,5.6994872 -0.125617,6.2266949 0.125617,0.5272075 0.21873,-0.8039171 0.21873,-0.8039171 z"
       id="path4" />
    <path
       style="fill:#ffffff;fill-opacity:1;stroke-width:15;stroke-linecap:round"
       d="m 130.45778,35.713001 c 0.071,-2.911345 2.98268,-24.641644 4.90013,-26.2751362 1.91746,-1.6334921 33.16339,-7.6698372 38.77378,-7.740829 5.6104,-0.070992 -33.09239,0 -38.84477,5.1131114 -5.75237,5.1131118 -5.11345,27.4116848 -4.82914,28.9028538 z"
       id="path5" />
    <path
       style="fill:#ffffff;fill-opacity:1;stroke-width:15;stroke-linecap:round"
       d="M 227.95096,0.98391793 C 226.81475,4.9608201 216.56148,36.723676 216.31318,38.037704 221.541,27.775887 224.39753,17.377165 225.42707,13.648903 228.38418,2.9403816 227.95096,0.98391793 227.95096,0.98391793 Z"
       id="path6" />
    <path
       style="fill:#ffffff;fill-opacity:1;stroke-width:15;stroke-linecap:round"
       d="m 204.21455,1.130314 c -3.21368,0 -16.16906,2.1093111 -16.52069,2.5611004 -0.35163,0.4517894 1.25521,10.7461496 1.85783,12.7545826 0.60263,2.008433 -0.55218,-10.2439211 -0.20079,-11.5997696 0.35139,-1.3558484 13.65816,-2.8620531 14.71282,-2.6612578 1.05465,0.2007952 0.15083,-1.0546556 0.15083,-1.0546556 z"
       id="path7" />
    <path
       style="fill:#ffffff;fill-opacity:1;stroke-width:15;stroke-linecap:round"
       d="m 279.52455,25.640307 c -3.11353,2.812094 -23.45054,19.483145 -24.50495,20.487602 -1.05442,1.004457 9.4907,-6.226334 14.16063,-10.143283 4.66993,-3.916949 10.34456,-9.189266 10.34432,-10.344319 z"
       id="path8" />
    <path
       style="fill:#ffffff;fill-opacity:1;stroke-width:15;stroke-linecap:round"
       d="m 254.61515,13.624151 c 0.56811,-1.775306 -0.4268,-8.045007 5.36091,-8.8615831 5.7877,-0.8165761 25.36837,-3.6783288 30.83678,-2.9680706 -2.84035,-0.81657612 -31.34287,-0.3076886 -34.11257,3.0299473 -2.76971,3.3376359 -2.34972,6.9945094 -2.08512,8.7997064 z"
       id="path9" />
  </g>
</svg>
